<?xml version="1.0" encoding="UTF-8" standalone="no"?>
<svg width="171px" height="74px" viewBox="0 0 171 74" version="1.1" xmlns="http://www.w3.org/2000/svg" xmlns:xlink="http://www.w3.org/1999/xlink">
    <!-- Generator: Sketch 39.1 (31720) - http://www.bohemiancoding.com/sketch -->
    <title>Comeeting</title>
    <desc>Created with Sketch.</desc>
    <defs></defs>
    <g id="Website" stroke="none" stroke-width="1" fill="none" fill-rule="evenodd">
        <g id="Desktop-HD" transform="translate(-60.000000, -28.000000)" fill="#FFFFFF">
            <path d="M78.3129883,55.644043 C77.5512657,54.7976846 77.1492515,54.2264012 77.1069336,53.9301758 C77.0857746,53.8455399 77.0751953,53.7609054 77.0751953,53.6762695 C77.0751953,53.3800441 77.1280919,53.0097678 77.2338867,52.5654297 C77.3819994,51.9518198 77.8369103,50.8833084 78.5986328,49.3598633 C79.3603554,47.8364182 80.0480113,46.1225681 80.6616211,44.2182617 C81.2752309,42.3139553 81.5820312,40.8328503 81.5820312,39.7749023 C81.5820312,38.7381133 81.5344243,37.8124227 81.439209,36.9978027 C81.3439937,36.1831828 81.1376969,35.6277684 80.8203125,35.331543 C80.6510408,35.2045892 80.460613,35.1411133 80.2490234,35.1411133 C80.0374338,35.1411133 79.8046888,35.2045892 79.5507812,35.331543 C79.0218073,35.6277684 78.0855373,36.3947692 76.7419434,37.6325684 C75.3983494,38.8703675 73.5839958,41.4411426 71.2988281,45.3449707 C69.0136604,49.2487988 67.4690795,52.6553403 66.6650391,55.5646973 C65.8609986,58.4740543 65.1945013,61.3357607 64.6655273,64.1499023 C64.1365533,66.964044 63.8509117,69.36555 63.8085938,71.3544922 L63.8085938,71.9257812 C63.8085938,73.7877697 63.9990215,75.8401581 64.3798828,78.0830078 C64.803062,80.5586061 65.395504,82.4575943 66.1572266,83.7800293 C66.9189491,85.1024643 67.9451433,85.9540997 69.2358398,86.3349609 C70.0821982,86.6100274 70.8439094,86.7475586 71.5209961,86.7475586 C71.8595395,86.7475586 72.1769191,86.7052413 72.4731445,86.6206055 C73.3195029,86.4301748 74.097083,86.0281606 74.8059082,85.4145508 C75.5147334,84.8009409 76.2976031,83.7588778 77.154541,82.2883301 C78.0114789,80.8177824 78.5139967,79.5112362 78.6621094,78.3686523 C78.8102221,77.2260685 78.8842773,76.4114608 78.8842773,75.9248047 C78.8842773,75.4593076 79.0747051,75.0043968 79.4555664,74.5600586 C79.7729508,74.2215152 80.1855443,74.0522461 80.6933594,74.0522461 L81.0424805,74.0522461 C81.6984082,74.1580409 82.1215811,74.5706344 82.3120117,75.2900391 C82.3543296,75.4804697 82.3754883,75.7132148 82.3754883,75.9882812 C82.3754883,76.7288448 82.1850605,77.755039 81.8041992,79.0668945 C81.2752252,80.8865651 80.4183002,82.6533117 79.2333984,84.3671875 C78.0484967,86.0810633 76.6943436,87.4140577 75.1708984,88.3662109 C73.795566,89.2337283 72.6635787,89.6674805 71.7749023,89.6674805 C71.6902665,89.6674805 71.6056319,89.6569011 71.5209961,89.6357422 C70.6111608,89.5511063 69.3733802,89.244306 67.8076172,88.715332 C66.2418542,88.186358 64.887701,87.2553778 63.7451172,85.9223633 C62.6025333,84.5893488 61.6927117,82.4258776 61.015625,79.4318848 C60.3385383,76.4378919 60,73.5338682 60,70.7197266 C60,67.9055849 60.4813591,64.4038295 61.4440918,60.2143555 C62.4068245,56.0248814 63.9090881,51.5709871 65.9509277,46.8525391 C67.9927674,42.134091 70.3731147,38.0610523 73.092041,34.6333008 C75.8109674,31.2055493 77.625321,29.2272162 78.5351562,28.6982422 C79.3603557,28.2327451 79.8787424,28 80.090332,28 L80.1538086,28 C80.3442392,28.0423179 80.79915,28.3015113 81.5185547,28.7775879 C82.2379593,29.2536645 83.1213327,30.1581965 84.1687012,31.4912109 C85.2160697,32.8242254 85.8561186,34.2947511 86.0888672,35.902832 C86.1523441,36.4106471 86.184082,36.9713511 86.184082,37.5849609 C86.184082,38.9391344 86.0148129,40.5683499 85.6762695,42.4726562 C85.1472955,45.24448 84.2850808,47.9210483 83.0895996,50.5024414 C81.8941184,53.0838345 81.1800142,54.6125464 80.9472656,55.088623 C80.7145171,55.5646996 80.4606134,55.8662103 80.1855469,55.9931641 C80.100911,56.035482 79.9951178,56.0566406 79.8681641,56.0566406 C79.5296207,56.0566406 79.011234,55.9191094 78.3129883,55.644043 L78.3129883,55.644043 Z M97.1383233,70.0849609 C97.3922308,68.9635361 97.5720793,67.6728589 97.6778741,66.2128906 C97.7836689,64.7529224 97.8365655,63.4305072 97.8365655,62.2456055 C97.8365655,61.420406 97.8154069,60.6692742 97.7730889,59.9921875 C97.6461352,58.3417886 97.3181762,56.7548904 96.7892022,55.2314453 C94.9906906,57.1992286 93.75291,59.0506098 93.0758233,60.7856445 C93.0123464,60.9337573 92.9488705,61.0818677 92.8853936,61.2299805 C92.4833734,62.520677 92.2823663,63.6209264 92.2823663,64.5307617 C92.2823663,65.1020536 92.3670008,65.5992817 92.5362725,66.0224609 C93.0440876,67.3343165 94.1549163,68.4768832 95.8687921,69.4501953 C96.2919713,69.7041028 96.7151441,69.9156893 97.1383233,70.0849609 L97.1383233,70.0849609 Z M91.012835,68.847168 C90.9916761,69.0164396 90.9810967,69.1857088 90.9810967,69.3549805 C90.9176199,70.116703 90.8858819,70.8678348 90.8858819,71.6083984 C90.8858819,72.4970748 90.9281992,73.3857377 91.012835,74.2744141 C91.1609477,75.9459719 91.4889067,76.9721661 91.9967217,77.3530273 C92.3141061,77.6069349 92.5997478,77.7338867 92.8536553,77.7338867 C92.9594501,77.7338867 93.0652434,77.7021488 93.1710382,77.6386719 C93.4672636,77.4482412 93.943333,76.8981165 94.5992608,75.9882812 C95.1493938,75.2265587 95.6889392,74.2003645 96.2179132,72.909668 C95.3715548,72.5711246 94.5781057,72.1585311 93.8375421,71.671875 C92.5045276,70.8255166 91.562968,69.883957 91.012835,68.847168 L91.012835,68.847168 Z M98.6300225,73.6396484 C98.1856844,74.9938219 97.6778769,76.3056577 97.106585,77.5751953 C96.1544318,79.6276144 95.4138793,80.897133 94.8849053,81.3837891 C94.3559313,81.8704451 93.784648,82.1137695 93.1710382,82.1137695 C92.5574283,82.1137695 91.7216619,81.8122589 90.6637139,81.2092285 C89.6057659,80.6061982 88.8123168,79.7016662 88.2833428,78.4956055 C87.7543688,77.2895448 87.4369892,75.2477357 87.3311944,72.3701172 C87.3100354,71.7353484 87.2994561,71.1217478 87.2994561,70.5292969 C87.2994561,68.4557188 87.4475666,66.6678135 87.7437921,65.1655273 C88.1034944,63.240062 88.5478259,61.2775979 89.0767999,59.2780762 C89.6057739,57.2785545 90.3251677,55.5382561 91.235003,54.0571289 C92.1448383,52.5760017 93.583626,51.1160554 95.5514092,49.6772461 C96.228496,50.2062201 96.9478898,50.8145311 97.7096124,51.5021973 C98.4713349,52.1898635 99.0796459,52.851071 99.5345635,53.4858398 C99.9894812,54.1206086 100.386206,55.0939062 100.724749,56.4057617 C100.894021,57.0405305 100.978655,57.8657176 100.978655,58.8813477 C100.978655,60.0450905 100.872862,61.4521402 100.661273,63.1025391 C100.30157,66.0859524 99.8783974,68.6567275 99.3917413,70.8149414 C99.7937615,70.8784183 100.195776,70.9101562 100.597796,70.9101562 C102.015446,70.9101562 102.967585,70.2225004 103.454241,68.847168 C103.538877,68.6355784 103.623512,68.4239919 103.708148,68.2124023 C104.512188,66.1599832 105.062313,64.7740921 105.358538,64.0546875 C105.506651,63.6949852 105.67592,63.5151367 105.866351,63.5151367 C106.035622,63.5151367 106.22605,63.6632472 106.43764,63.9594727 C106.649229,64.4038108 106.755023,64.9221976 106.755023,65.5146484 C106.755023,65.8320328 106.733864,66.1705711 106.691546,66.5302734 C106.501115,67.5882214 106.257791,68.6038363 105.961565,69.5771484 C105.898089,69.7675791 105.845192,69.9474275 105.802874,70.1166992 C105.612443,70.7091501 105.369119,71.3544887 105.072894,72.0527344 C104.522761,72.9625697 103.729312,73.5444323 102.692523,73.7983398 C102.269343,73.9041346 101.782695,73.9570312 101.232562,73.9570312 C100.470839,73.9570312 99.6033347,73.851238 98.6300225,73.6396484 L98.6300225,73.6396484 Z M106.823033,67.5458984 C106.844192,64.6894388 106.897089,62.2985122 106.981725,60.3730469 C107.129837,57.1992029 107.722279,53.5916543 108.759068,49.550293 C108.864863,49.4868161 108.981236,49.4550781 109.10819,49.4550781 C109.489051,49.4550781 109.954541,49.7301405 110.504674,50.2802734 C111.266397,51.041996 111.67899,51.634438 111.742467,52.0576172 L111.742467,52.2480469 C111.742467,52.8828157 111.499143,54.670721 111.012486,57.6118164 C110.462353,60.8914552 110.144974,64.0546723 110.060338,67.1015625 C110.039179,67.7998082 110.0286,68.5297813 110.0286,69.2915039 C111.255819,64.2133535 112.33491,60.6904395 113.265904,58.7226562 C114.239217,56.6490782 115.133169,54.8929108 115.947789,53.4541016 C116.762409,52.0152923 117.286086,51.2430018 117.518834,51.137207 L117.645787,51.137207 C117.899695,51.137207 118.344026,51.3487935 118.978795,51.7719727 C119.719359,52.3009467 120.221876,52.7294092 120.486363,53.057373 C120.75085,53.3853369 120.925409,53.7080062 121.010045,54.0253906 L121.010045,54.3427734 C121.010045,54.7024758 120.93599,55.2314418 120.787877,55.9296875 C120.555129,56.8606817 120.301225,58.3576557 120.026158,60.4206543 C119.751092,62.4836529 119.613561,64.7211793 119.613561,67.1333008 L119.613561,67.4824219 C120.65035,63.3775836 121.58133,60.457691 122.406529,58.7226562 C123.379842,56.6490782 124.210318,55.0198627 124.897985,53.8349609 C125.585651,52.6500592 126.045851,52.0047206 126.2786,51.8989258 L126.405553,51.8989258 C126.65946,51.8989258 127.103792,52.1105122 127.738561,52.5336914 C128.479124,53.0626654 128.981642,53.4911279 129.246129,53.8190918 C129.510616,54.1470557 129.685175,54.469725 129.769811,54.7871094 C129.79097,54.9352221 129.801549,55.1150706 129.801549,55.3266602 C129.801549,55.6017266 129.78039,55.9296856 129.738072,56.3105469 C129.632278,56.9876336 129.44185,58.352366 129.166783,60.4047852 C128.912876,62.3514095 128.775345,64.4566944 128.754186,66.7207031 L128.785924,66.7207031 L128.785924,67.1333008 C128.785924,69.5665812 128.817662,71.0900034 128.881139,71.7036133 C128.923457,72.1479514 129.050409,72.3701172 129.261998,72.3701172 C129.346634,72.3701172 129.441848,72.3383792 129.547643,72.2749023 C129.907345,72.0421538 130.224725,71.5766636 130.499791,70.878418 C130.605586,70.6456694 130.721958,70.3811864 130.848912,70.0849609 C131.123979,69.4501921 131.377882,68.8260122 131.610631,68.2124023 C132.414671,66.1599832 132.964796,64.7740921 133.261022,64.0546875 C133.409134,63.6949852 133.578403,63.5151367 133.768834,63.5151367 C133.938106,63.5151367 134.128534,63.6632472 134.340123,63.9594727 C134.551713,64.4038108 134.657506,64.9221976 134.657506,65.5146484 C134.657506,65.8320328 134.636347,66.1705711 134.594029,66.5302734 C134.403599,67.5882214 134.160274,68.6038363 133.864049,69.5771484 C133.567824,70.5081427 133.282182,71.2910125 133.007115,71.9257812 C132.435823,73.3857495 131.896278,74.6341094 131.388463,75.6708984 C130.83833,76.7500054 130.256467,77.659827 129.642858,78.4003906 C129.071566,79.0563184 128.658972,79.3842773 128.405065,79.3842773 C128.362747,79.3842773 128.331009,79.373698 128.30985,79.3525391 C128.034783,79.2679032 127.410603,78.8182821 126.437291,78.0036621 C125.463979,77.1890422 124.945592,76.7023934 124.882115,76.5437012 C124.818638,76.385009 124.744583,75.7132221 124.659947,74.5283203 C124.617629,74.0416642 124.596471,73.343429 124.596471,72.4335938 C124.596471,71.227533 124.628209,69.6723728 124.691686,67.7680664 C124.691686,67.5564768 124.702265,67.3554697 124.723424,67.1650391 L124.691686,67.1650391 C124.79748,64.1816257 124.935012,62.1927133 125.104283,61.1982422 C125.252396,60.1402942 125.389927,59.3785831 125.516881,58.9130859 C124.289661,60.8597103 123.300495,62.7639881 122.549352,64.6259766 C121.798209,66.487965 121.258663,68.0854426 120.930699,69.418457 C120.602735,70.7514715 120.295935,72.052728 120.010289,73.3222656 C119.724643,74.5918032 119.518346,75.7766872 119.391393,76.8769531 C119.285598,77.5751988 119.232701,78.2522754 119.232701,78.9082031 C119.232701,79.2890644 119.25386,79.66992 119.296178,80.0507812 C119.317337,80.2200529 119.327916,80.3681634 119.327916,80.4951172 C119.327916,81.2356808 119.137488,81.6905916 118.756627,81.8598633 C118.523879,81.9444991 118.301713,81.9868164 118.090123,81.9868164 C117.899693,81.9868164 117.719844,81.9444991 117.550572,81.8598633 C117.19087,81.6694326 116.88407,81.4578462 116.630162,81.2250977 C116.503208,81.1193029 116.386836,80.992351 116.281041,80.8442383 C115.921339,80.5056949 115.709752,80.0084668 115.646276,79.3525391 C115.56164,78.0406835 115.508743,76.8875375 115.487584,75.8930664 C115.466425,75.6391589 115.455846,75.3006206 115.455846,74.8774414 C115.455846,73.5867448 115.498163,71.4920392 115.582799,68.5932617 C115.667435,64.721172 115.789097,62.2561902 115.947789,61.1982422 C116.106481,60.1402942 116.249302,59.3785831 116.376256,58.9130859 C115.149036,60.8597103 114.15987,62.7639881 113.408727,64.6259766 C112.657584,66.487965 112.118038,68.0854426 111.790074,69.418457 C111.46211,70.7514715 111.15531,72.052728 110.869664,73.3222656 C110.584018,74.5918032 110.372432,75.7819769 110.234899,76.8928223 C110.097365,78.0036677 110.01802,79.0563101 109.996861,80.0507812 C109.975702,80.5585963 109.965123,80.9817691 109.965123,81.3203125 C109.965123,81.6588559 109.975702,81.9233389 109.996861,82.1137695 L109.996861,82.3676758 C109.996861,82.6004243 109.965123,82.7908521 109.901647,82.9389648 C109.859329,83.0024417 109.795853,83.0341797 109.711217,83.0341797 C109.541945,83.0341797 109.3092,82.9389658 109.012975,82.7485352 C108.526319,82.4311508 108.087277,82.0450055 107.695836,81.5900879 C107.304395,81.1351703 107.029333,80.7119974 106.870641,80.3205566 C106.711949,79.9291159 106.590286,79.257329 106.505651,78.3051758 C106.484492,78.1359041 106.473912,77.8714211 106.473912,77.5117188 C106.473912,75.9459557 106.590285,72.6240488 106.823033,67.5458984 L106.823033,67.5458984 Z M137.99456,67.2919922 C138.481216,66.8264951 138.872651,66.4139015 139.168876,66.0541992 C140.036394,65.0385691 140.70818,63.964768 141.184257,62.8327637 C141.660334,61.7007593 142.041189,60.4841374 142.326835,59.1828613 C142.612481,57.8815853 142.776461,56.7548876 142.818779,55.8027344 L142.818779,55.2314453 C142.818779,54.5543586 142.765882,54.0042339 142.660087,53.5810547 C142.533133,53.1578755 142.363864,52.9462891 142.152275,52.9462891 C142.109957,52.9462891 142.05706,52.9674477 141.993583,53.0097656 C141.718517,53.1578783 141.411716,53.5651822 141.073173,54.2316895 C140.73463,54.8981967 140.406671,55.7128044 140.089286,56.6755371 C139.771902,57.6382698 139.470391,58.632726 139.184745,59.6589355 C138.899099,60.6851451 138.655775,61.8911877 138.454765,63.2770996 C138.253755,64.6630115 138.110934,65.9907163 138.026298,67.2602539 C138.005139,67.2602539 137.99456,67.2708332 137.99456,67.2919922 L137.99456,67.2919922 Z M146.373466,70.7514648 C146.754327,69.8839475 147.103445,69.0376018 147.420829,68.2124023 C148.22487,66.1599832 148.774994,64.7740921 149.07122,64.0546875 C149.219333,63.6949852 149.388602,63.5151367 149.579032,63.5151367 C149.748304,63.5151367 149.938732,63.6632472 150.150321,63.9594727 C150.361911,64.4038108 150.467704,64.9221976 150.467704,65.5146484 C150.467704,65.8320328 150.446546,66.1705711 150.404228,66.5302734 C150.213797,67.5882214 149.970473,68.6038363 149.674247,69.5771484 C149.378022,70.5504606 149.081801,71.354489 148.785575,71.9892578 C148.510509,72.6240266 148.267185,73.1741513 148.055595,73.6396484 C147.568939,74.6975964 147.08758,75.7290803 146.611503,76.7341309 C146.135427,77.7391815 145.590591,78.6860307 144.976982,79.574707 C144.363372,80.4633833 143.781509,81.1510392 143.231376,81.6376953 C142.681243,82.1243514 142.152277,82.441731 141.644462,82.5898438 C141.221283,82.6956385 140.776951,82.7485352 140.311454,82.7485352 L139.898857,82.7485352 C139.242929,82.7062172 138.481218,82.4311549 137.6137,81.9233398 C136.746183,81.4155248 136.079686,80.8019242 135.614189,80.0825195 C135.148692,79.3631149 134.757257,78.3263414 134.439872,76.972168 C134.164806,75.893061 134.027275,74.2850042 134.027275,72.1479492 C134.027275,71.6824521 134.037854,71.1746447 134.059013,70.6245117 C134.12249,67.7468932 134.254731,65.6151599 134.455741,64.229248 C134.656752,62.8433362 135.064055,61.0660102 135.677665,58.8972168 C136.291275,56.7284234 137.068855,54.8188559 138.010429,53.168457 C138.952003,51.5180582 139.740162,50.4389674 140.374931,49.9311523 C141.0097,49.4233373 141.485769,49.1588543 141.803154,49.1376953 L141.86663,49.1376953 C142.184014,49.1376953 142.607187,49.2963851 143.136161,49.6137695 C143.707453,49.9734719 144.273447,50.4865689 144.834159,51.1530762 C145.394872,51.8195834 145.812755,52.4384737 146.087821,53.0097656 C146.32057,53.5598986 146.436943,54.3850856 146.436943,55.4853516 L146.436943,55.7392578 C146.415784,56.9664775 146.246514,58.2307064 145.92913,59.5319824 C145.611746,60.8332585 145.146256,62.0710391 144.532646,63.2453613 C143.919036,64.4196836 143.130876,65.6098573 142.168144,66.815918 C141.205411,68.0219787 140.385514,69.0058556 139.708427,69.7675781 C139.24293,70.3177111 138.703384,70.8784151 138.089775,71.449707 C138.089775,71.5555018 138.100354,71.661295 138.121513,71.7670898 C138.269626,73.5021246 138.465343,74.850988 138.708671,75.8137207 C138.951999,76.7764534 139.285248,77.4746886 139.708427,77.9084473 C140.131606,78.3422059 140.512462,78.59082 140.851005,78.6542969 C140.9568,78.6754558 141.073172,78.6860352 141.200126,78.6860352 C141.369398,78.6860352 141.538667,78.6542972 141.707939,78.5908203 C141.940687,78.4850255 142.263357,78.1940942 142.675956,77.7180176 C143.088556,77.241941 143.617522,76.4114643 144.26287,75.2265625 C144.908219,74.0416607 145.590585,72.6134524 146.309989,70.9418945 C146.331148,70.8784177 146.352307,70.8149417 146.373466,70.7514648 L146.373466,70.7514648 Z M153.804758,67.2919922 C154.291414,66.8264951 154.682849,66.4139015 154.979074,66.0541992 C155.846592,65.0385691 156.518379,63.964768 156.994455,62.8327637 C157.470532,61.7007593 157.851388,60.4841374 158.137033,59.1828613 C158.422679,57.8815853 158.586659,56.7548876 158.628977,55.8027344 L158.628977,55.2314453 C158.628977,54.5543586 158.57608,54.0042339 158.470285,53.5810547 C158.343332,53.1578755 158.174063,52.9462891 157.962473,52.9462891 C157.920155,52.9462891 157.867258,52.9674477 157.803782,53.0097656 C157.528715,53.1578783 157.221915,53.5651822 156.883371,54.2316895 C156.544828,54.8981967 156.216869,55.7128044 155.899485,56.6755371 C155.5821,57.6382698 155.28059,58.632726 154.994944,59.6589355 C154.709298,60.6851451 154.465973,61.8911877 154.264963,63.2770996 C154.063953,64.6630115 153.921132,65.9907163 153.836496,67.2602539 C153.815337,67.2602539 153.804758,67.2708332 153.804758,67.2919922 L153.804758,67.2919922 Z M162.183664,70.7514648 C162.564526,69.8839475 162.913643,69.0376018 163.231028,68.2124023 C164.035068,66.1599832 164.585193,64.7740921 164.881418,64.0546875 C165.029531,63.6949852 165.1988,63.5151367 165.389231,63.5151367 C165.558502,63.5151367 165.74893,63.6632472 165.96052,63.9594727 C166.172109,64.4038108 166.277903,64.9221976 166.277903,65.5146484 C166.277903,65.8320328 166.256744,66.1705711 166.214426,66.5302734 C166.023995,67.5882214 165.780671,68.6038363 165.484446,69.5771484 C165.18822,70.5504606 164.891999,71.354489 164.595774,71.9892578 C164.320707,72.6240266 164.077383,73.1741513 163.865793,73.6396484 C163.379137,74.6975964 162.897778,75.7290803 162.421701,76.7341309 C161.945625,77.7391815 161.40079,78.6860307 160.78718,79.574707 C160.17357,80.4633833 159.591707,81.1510392 159.041574,81.6376953 C158.491442,82.1243514 157.962475,82.441731 157.45466,82.5898438 C157.031481,82.6956385 156.58715,82.7485352 156.121653,82.7485352 L155.709055,82.7485352 C155.053127,82.7062172 154.291416,82.4311549 153.423899,81.9233398 C152.556381,81.4155248 151.889884,80.8019242 151.424387,80.0825195 C150.95889,79.3631149 150.567455,78.3263414 150.250071,76.972168 C149.975004,75.893061 149.837473,74.2850042 149.837473,72.1479492 C149.837473,71.6824521 149.848052,71.1746447 149.869211,70.6245117 C149.932688,67.7468932 150.06493,65.6151599 150.26594,64.229248 C150.46695,62.8433362 150.874254,61.0660102 151.487864,58.8972168 C152.101473,56.7284234 152.879053,54.8188559 153.820627,53.168457 C154.762201,51.5180582 155.55036,50.4389674 156.185129,49.9311523 C156.819898,49.4233373 157.295967,49.1588543 157.613352,49.1376953 L157.676828,49.1376953 C157.994213,49.1376953 158.417386,49.2963851 158.94636,49.6137695 C159.517652,49.9734719 160.083645,50.4865689 160.644358,51.1530762 C161.20507,51.8195834 161.622953,52.4384737 161.89802,53.0097656 C162.130768,53.5598986 162.247141,54.3850856 162.247141,55.4853516 L162.247141,55.7392578 C162.225982,56.9664775 162.056713,58.2307064 161.739328,59.5319824 C161.421944,60.8332585 160.956454,62.0710391 160.342844,63.2453613 C159.729234,64.4196836 158.941075,65.6098573 157.978342,66.815918 C157.015609,68.0219787 156.195712,69.0058556 155.518625,69.7675781 C155.053128,70.3177111 154.513583,70.8784151 153.899973,71.449707 C153.899973,71.5555018 153.910552,71.661295 153.931711,71.7670898 C154.079824,73.5021246 154.275541,74.850988 154.518869,75.8137207 C154.762197,76.7764534 155.095446,77.4746886 155.518625,77.9084473 C155.941804,78.3422059 156.32266,78.59082 156.661203,78.6542969 C156.766998,78.6754558 156.883371,78.6860352 157.010324,78.6860352 C157.179596,78.6860352 157.348865,78.6542972 157.518137,78.5908203 C157.750886,78.4850255 158.073555,78.1940942 158.486155,77.7180176 C158.898754,77.241941 159.42772,76.4114643 160.073069,75.2265625 C160.718417,74.0416607 161.400783,72.6134524 162.120188,70.9418945 C162.141347,70.8784177 162.162505,70.8149417 162.183664,70.7514648 L162.183664,70.7514648 Z M174.820035,70.7514648 L174.788296,70.7514648 C175.169158,69.8839475 175.518275,69.0376018 175.83566,68.2124023 C176.6397,66.1599832 177.189825,64.7740921 177.48605,64.0546875 C177.634163,63.6949852 177.803432,63.5151367 177.993863,63.5151367 C178.163134,63.5151367 178.353562,63.6632472 178.565152,63.9594727 C178.776741,64.4038108 178.882535,64.9221976 178.882535,65.5146484 C178.882535,65.8320328 178.861376,66.1705711 178.819058,66.5302734 C178.628627,67.5882214 178.385303,68.6038363 178.089077,69.5771484 C177.814011,70.4869837 177.538949,71.2486948 177.263882,71.8623047 C177.073452,72.3489608 176.872444,72.8461889 176.660855,73.3540039 C175.856814,75.3217872 175.058076,77.0673752 174.264615,78.5908203 C173.471154,80.1142654 172.820525,81.0346664 172.31271,81.3520508 C171.804895,81.6694352 171.318246,81.8492836 170.852749,81.8916016 L170.694058,81.8916016 C170.270879,81.8916016 169.837127,81.7434911 169.392788,81.4472656 C168.863814,81.1087223 168.271372,80.6220735 167.615445,79.9873047 C166.959517,79.3525359 166.531054,78.6913283 166.330044,78.0036621 C166.129034,77.3159959 166.028531,76.4220433 166.028531,75.3217773 C166.028531,74.2215114 166.102586,71.7512399 166.250699,67.9108887 C166.398811,64.0705374 166.525763,61.3146242 166.631558,59.6430664 C166.673876,59.1352514 166.726772,58.5216507 166.790249,57.8022461 C166.938362,56.0672114 167.054735,54.1311956 167.13937,51.9941406 L167.13937,51.4545898 C165.488972,51.348795 163.690487,51.2006845 161.743863,51.0102539 C161.257207,50.8833001 161.003303,50.7669276 160.982144,50.6611328 C160.960985,50.6188149 160.950406,50.555339 160.950406,50.4707031 C160.950406,50.3860673 160.960985,50.2696948 160.982144,50.121582 C161.003303,49.8676745 161.262496,49.4445017 161.759732,48.8520508 C162.256967,48.2595999 162.553188,47.915772 162.648404,47.8205566 C162.743619,47.7253413 162.865281,47.6671551 163.013394,47.6459961 C163.140348,47.6459961 164.589715,47.6671547 167.361538,47.7094727 C167.403856,46.990068 167.456753,46.2600948 167.52023,45.5195312 C167.71066,43.3401584 168.02804,40.8645972 168.472378,38.0927734 C168.620491,37.6272763 168.747443,37.3733726 168.853238,37.3310547 L168.980191,37.3310547 C169.085986,37.3310547 169.223517,37.341634 169.392788,37.362793 C169.646696,37.4262698 170.054,37.7224908 170.614712,38.2514648 C171.175425,38.7804388 171.503384,39.0925288 171.598599,39.1877441 C171.693814,39.2829595 171.741421,39.4046217 171.741421,39.5527344 C171.741421,39.7008471 171.625049,41.4358558 171.3923,44.7578125 C171.307664,45.8157605 171.22303,46.820796 171.138394,47.7729492 C173.381244,47.7729492 175.486529,47.7306319 177.454312,47.6459961 C177.623584,47.7517909 177.708218,48.0162739 177.708218,48.4394531 C177.708218,49.0742219 177.51779,50.0898368 177.136929,51.4863281 C175.232623,51.549805 173.497614,51.581543 171.931851,51.581543 L170.789273,51.581543 C170.725796,52.1739938 170.66232,52.7346979 170.598843,53.2636719 C170.556525,53.9407586 170.418994,55.5382361 170.186245,58.0561523 C170.080451,59.7065512 169.995816,61.5367738 169.932339,63.546875 C169.826544,66.170586 169.731331,68.7307818 169.646695,71.2275391 C169.625536,71.7565131 169.614956,72.2537412 169.614956,72.7192383 C169.614956,74.3907961 169.741908,75.5122042 169.995816,76.0834961 C170.3132,76.8240597 170.694056,77.2260739 171.138394,77.2895508 L171.20187,77.2895508 C171.646209,77.2895508 172.333864,76.4220464 173.264859,74.6870117 C173.814992,73.1212487 174.333378,71.8094128 174.820035,70.7514648 L174.820035,70.7514648 Z M183.266952,45.9321289 C182.166686,45.6570624 181.616561,44.6837649 181.616561,43.012207 C181.616561,42.7582995 181.62714,42.4832372 181.648299,42.1870117 C181.83873,40.0076388 182.156109,37.5320777 182.600448,34.7602539 C182.74856,34.2947568 182.875512,34.0408531 182.981307,33.9985352 L183.10826,33.9985352 C183.214055,33.9985352 183.351586,34.0091145 183.520858,34.0302734 C183.774765,34.0937503 184.182069,34.3899713 184.742782,34.9189453 C185.303494,35.4479193 185.631453,35.7600093 185.726668,35.8552246 C185.821884,35.9504399 185.869491,36.0721021 185.869491,36.2202148 C185.869491,36.3683276 185.753118,38.1033363 185.52037,41.425293 C185.287621,44.4510242 184.642282,45.9638672 183.584334,45.9638672 C183.47854,45.9638672 183.372746,45.9532879 183.266952,45.9321289 L183.266952,45.9321289 Z M189.868514,71.8623047 C189.678083,72.3489608 189.477076,72.8461889 189.265487,73.3540039 C188.461446,75.3217872 187.662707,77.0673752 186.869246,78.5908203 C186.075785,80.1142654 185.425157,81.0346664 184.917342,81.3520508 C184.409527,81.6694352 183.922878,81.8492836 183.457381,81.8916016 L183.29869,81.8916016 C182.875511,81.8916016 182.441758,81.7434911 181.99742,81.4472656 C181.468446,81.1087223 180.876004,80.6220735 180.220077,79.9873047 C179.564149,79.3525359 179.135686,78.6913283 178.934676,78.0036621 C178.733666,77.3159959 178.633162,76.4220433 178.633162,75.3217773 C178.633162,74.2215114 178.707218,71.7512399 178.85533,67.9108887 C179.003443,64.0705374 179.130395,61.3199139 179.23619,59.6589355 C179.341985,57.9979572 179.648785,55.3266786 180.1566,51.6450195 C180.283554,51.0525687 180.473982,50.7140304 180.727889,50.6293945 L180.88658,50.6293945 C181.077011,50.6293945 181.299177,50.7351877 181.553084,50.9467773 C181.870469,51.2218438 182.219586,51.5709614 182.600448,51.9941406 C182.96015,52.3961609 183.139998,52.7452785 183.139998,53.0415039 L183.139998,53.1049805 C183.118839,53.4223649 183.034205,54.5913799 182.886092,56.6120605 C182.737979,58.6327412 182.616317,60.9496126 182.521102,63.5627441 C182.425887,66.1758757 182.335962,68.7307818 182.251327,71.2275391 C182.230168,71.7565131 182.219588,72.2537412 182.219588,72.7192383 C182.219588,74.3907961 182.34654,75.5122042 182.600448,76.0834961 C182.917832,76.8240597 183.298688,77.2260739 183.743026,77.2895508 L183.806502,77.2895508 C184.250841,77.2895508 184.938496,76.4220464 185.869491,74.6870117 C186.419624,73.1212487 186.93801,71.8094128 187.424666,70.7514648 L187.392928,70.7514648 C187.773789,69.8839475 188.122907,69.0376018 188.440291,68.2124023 C189.244332,66.1599832 189.794457,64.7740921 190.090682,64.0546875 C190.238795,63.6949852 190.408064,63.5151367 190.598495,63.5151367 C190.767766,63.5151367 190.958194,63.6632472 191.169784,63.9594727 C191.381373,64.4038108 191.487166,64.9221976 191.487166,65.5146484 C191.487166,65.8320328 191.466008,66.1705711 191.42369,66.5302734 C191.233259,67.5882214 190.989935,68.6038363 190.693709,69.5771484 C190.418643,70.4869837 190.143581,71.2486948 189.868514,71.8623047 L189.868514,71.8623047 Z M191.555177,67.5458984 C191.576336,64.6894388 191.629233,62.2985122 191.713869,60.3730469 C191.861981,57.1992029 192.454423,53.5916543 193.491212,49.550293 C193.597007,49.4868161 193.71338,49.4550781 193.840333,49.4550781 C194.221195,49.4550781 194.686685,49.7301405 195.236818,50.2802734 C195.99854,51.041996 196.411134,51.634438 196.474611,52.0576172 L196.474611,52.2480469 C196.474611,52.8828157 196.231286,54.670721 195.74463,57.6118164 C195.194497,60.8914552 194.877118,64.0546723 194.792482,67.1015625 C194.771323,67.7998082 194.760744,68.5297813 194.760744,69.2915039 C195.987963,64.2133535 197.067054,60.6904395 197.998048,58.7226562 C198.97136,56.6490782 199.865313,54.8929108 200.679933,53.4541016 C201.494553,52.0152923 202.018229,51.2430018 202.250978,51.137207 L202.377931,51.137207 C202.631839,51.137207 203.07617,51.3487935 203.710939,51.7719727 C204.451503,52.3009467 204.95402,52.7294092 205.218507,53.057373 C205.482994,53.3853369 205.657553,53.7080062 205.742189,54.0253906 L205.742189,54.3427734 C205.742189,54.7024758 205.668134,55.2314418 205.520021,55.9296875 C205.287272,56.8606817 205.033369,58.3576557 204.758302,60.4206543 C204.483236,62.4836529 204.345705,64.7211793 204.345705,67.1333008 L204.345705,68.9106445 C204.366864,70.3282948 204.398601,71.2592751 204.440919,71.7036133 C204.504396,72.3172231 204.610189,72.6557614 204.758302,72.7192383 L204.79004,72.7192383 C204.938153,72.7192383 205.170898,72.5393898 205.488283,72.1796875 C205.699872,71.8623031 205.953776,71.3862336 206.250001,70.7514648 L206.218263,70.7514648 C206.599124,69.8839475 206.948242,69.0376018 207.265626,68.2124023 C208.069667,66.1599832 208.619792,64.7740921 208.916017,64.0546875 C209.06413,63.6949852 209.233399,63.5151367 209.42383,63.5151367 C209.593101,63.5151367 209.783529,63.6632472 209.995119,63.9594727 C210.206708,64.4038108 210.312501,64.9221976 210.312501,65.5146484 C210.312501,65.8320328 210.291343,66.1705711 210.249025,66.5302734 C210.058594,67.5882214 209.81527,68.6038363 209.519044,69.5771484 C209.243978,70.4869837 208.968916,71.2486948 208.693849,71.8623047 C208.334147,72.77214 207.879236,73.8300721 207.329103,75.0361328 C206.398109,76.9615982 205.636398,78.1887994 205.043947,78.7177734 C204.536132,79.1621116 204.155276,79.3842773 203.901369,79.3842773 C203.837892,79.3842773 203.795574,79.373698 203.774415,79.3525391 C203.499349,79.2679032 202.891038,78.8182821 201.949464,78.0036621 C201.007891,77.1890422 200.505373,76.7023934 200.441896,76.5437012 C200.378419,76.385009 200.304364,75.7132221 200.219728,74.5283203 C200.17741,74.0205053 200.156251,73.3011114 200.156251,72.3701172 C200.156251,71.417964 200.17741,70.264818 200.219728,68.9106445 C200.219728,68.5509422 200.230307,68.1700866 200.251466,67.7680664 C200.37842,64.4461097 200.521241,62.2561902 200.679933,61.1982422 C200.838625,60.1402942 200.981446,59.3785831 201.1084,58.9130859 C199.88118,60.8597103 198.892014,62.7639881 198.140871,64.6259766 C197.389727,66.487965 196.850182,68.0854426 196.522218,69.418457 C196.194254,70.7514715 195.887454,72.052728 195.601808,73.3222656 C195.316162,74.5918032 195.104576,75.7819769 194.967042,76.8928223 C194.829509,78.0036677 194.750164,79.0563101 194.729005,80.0507812 C194.707846,80.5585963 194.697267,80.9817691 194.697267,81.3203125 C194.697267,81.6588559 194.707846,81.9233389 194.729005,82.1137695 L194.729005,82.3676758 C194.729005,82.6004243 194.697267,82.7908521 194.63379,82.9389648 C194.591473,83.0024417 194.527997,83.0341797 194.443361,83.0341797 C194.274089,83.0341797 194.041344,82.9389658 193.745119,82.7485352 C193.258463,82.4311508 192.819421,82.0450055 192.42798,81.5900879 C192.036539,81.1351703 191.761477,80.7119974 191.602785,80.3205566 C191.444092,79.9291159 191.32243,79.257329 191.237794,78.3051758 C191.216635,78.1359041 191.206056,77.8714211 191.206056,77.5117188 C191.206056,75.9459557 191.322429,72.6240488 191.555177,67.5458984 L191.555177,67.5458984 Z M218.822895,55.2314453 C217.024383,57.1992286 215.781313,59.0558995 215.093647,60.8015137 C214.405981,62.5471279 213.914042,64.0017845 213.617817,65.1655273 C213.321591,66.3292701 213.120584,67.7257406 213.01479,69.3549805 C212.951313,70.0743851 212.919575,70.793779 212.919575,71.5131836 C212.919575,72.4441778 212.961892,73.3645788 213.046528,74.2744141 C213.194641,75.9459719 213.5226,76.9721661 214.030415,77.3530273 C214.347799,77.6069349 214.633441,77.7338867 214.887348,77.7338867 C214.993143,77.7338867 215.098936,77.7021488 215.204731,77.6386719 C215.500956,77.4482412 215.971736,76.9034062 216.617085,76.0041504 C217.262433,75.1048946 217.907771,73.8195071 218.55312,72.1479492 C219.198468,70.4763914 219.595192,68.4451617 219.743305,66.0541992 C219.827941,64.7211847 219.870258,63.5045628 219.870258,62.4042969 C219.870258,61.5367795 219.8491,60.7327511 219.806782,59.9921875 C219.679828,58.3417886 219.351869,56.7548904 218.822895,55.2314453 L218.822895,55.2314453 Z M220.314594,83.6054688 C219.743302,84.1132838 219.298971,84.5576153 218.981586,84.9384766 C218.177546,85.9117887 217.537497,86.9644312 217.06142,88.0964355 C216.585344,89.2284399 216.204488,90.4450619 215.918842,91.7463379 C215.633196,93.0476139 215.469217,94.1743116 215.426899,95.1264648 L215.426899,95.6977539 C215.426899,96.3748406 215.490375,96.9249653 215.617329,97.3481445 C215.723123,97.7713237 215.881813,97.9829102 216.093403,97.9829102 C216.135721,97.9829102 216.188617,97.9617515 216.252094,97.9194336 C216.527161,97.7713209 216.833961,97.364017 217.172504,96.6975098 C217.511048,96.0310025 217.839007,95.2163948 218.156391,94.2536621 C218.473776,93.2909294 218.775286,92.2964732 219.060932,91.2702637 C219.346578,90.2440541 219.595192,89.0327218 219.806782,87.6362305 C219.997212,86.324375 220.166482,84.9808011 220.314594,83.6054688 L220.314594,83.6054688 Z M226.820942,70.4658203 C227.159485,69.7040978 227.466286,68.9529659 227.741352,68.2124023 C228.545393,66.1599832 229.095517,64.7740921 229.391743,64.0546875 C229.539855,63.6949852 229.709125,63.5151367 229.899555,63.5151367 C230.068827,63.5151367 230.259255,63.6632472 230.470844,63.9594727 C230.682434,64.4038108 230.788227,64.9221976 230.788227,65.5146484 C230.788227,65.8320328 230.767068,66.1705711 230.724751,66.5302734 C230.53432,67.5882214 230.290995,68.6038363 229.99477,69.5771484 C229.698545,70.5293016 229.412903,71.3227507 229.137836,71.9575195 C229.010883,72.232586 228.883931,72.5076484 228.756977,72.7827148 C228.143367,74.0734114 227.598532,75.2212678 227.122456,76.2263184 C226.646379,77.231369 226.101544,78.1782182 225.487934,79.0668945 C225.128232,79.5958685 224.69448,80.1565726 224.186665,80.7490234 C224.102029,83.4150524 223.975077,85.3933855 223.805805,86.684082 C223.594216,88.0805734 223.181622,89.863189 222.568012,92.0319824 C221.954402,94.2007758 221.176822,96.1103433 220.235249,97.7607422 C219.293675,99.4111411 218.505515,100.490232 217.870747,100.998047 C217.235978,101.505862 216.759908,101.770345 216.442524,101.791504 L216.379047,101.791504 C216.061663,101.791504 215.63849,101.622235 215.109516,101.283691 C214.538224,100.945148 213.972231,100.44263 213.411518,99.776123 C212.850806,99.1096158 212.443502,98.4801462 212.189594,97.8876953 C211.935687,97.3587213 211.808735,96.5441136 211.808735,95.4438477 L211.808735,95.1899414 C211.829894,93.9627217 211.999163,92.6984928 212.316547,91.3972168 C212.633932,90.0959408 213.099422,88.8581602 213.713032,87.6838379 C214.326642,86.5095156 215.114801,85.319342 216.077534,84.1132812 C217.040266,82.9072205 217.860164,81.9127643 218.537251,81.1298828 C219.129701,80.4527961 219.849095,79.7439816 220.695454,79.003418 C220.716613,78.1147417 220.727192,77.2154993 220.727192,76.3056641 C220.727192,75.3958288 220.716613,74.4860072 220.695454,73.5761719 C220.251115,74.9515043 219.732729,76.2844988 219.140278,77.5751953 C218.188125,79.6276144 217.447572,80.897133 216.918598,81.3837891 C216.389624,81.8704451 215.818341,82.1137695 215.204731,82.1137695 C214.591121,82.1137695 213.755355,81.8122589 212.697407,81.2092285 C211.639459,80.6061982 210.84601,79.7016662 210.317036,78.4956055 C209.788062,77.2895448 209.470682,75.2477357 209.364887,72.3701172 C209.343728,71.7353484 209.333149,71.1217478 209.333149,70.5292969 C209.333149,68.4557188 209.481259,66.6678135 209.777485,65.1655273 C210.137187,63.240062 210.581519,61.2775979 211.110493,59.2780762 C211.639467,57.2785545 212.358861,55.5382561 213.268696,54.0571289 C214.178531,52.5760017 215.617319,51.1160554 217.585102,49.6772461 C218.262189,50.2062201 218.981583,50.8092414 219.743305,51.4863281 C220.06069,51.7825536 220.356911,52.0787746 220.631977,52.375 C220.716613,50.4072167 220.864723,49.4233398 221.076313,49.4233398 C221.097472,49.4233398 221.118631,49.4339192 221.13979,49.4550781 C221.245584,49.3916012 221.361957,49.3598633 221.488911,49.3598633 C221.869772,49.3598633 222.335262,49.6349256 222.885395,50.1850586 C223.647118,50.9467812 224.059711,51.5392231 224.123188,51.9624023 L224.123188,52.3115234 C224.123188,52.7347026 224.059712,53.305986 223.932758,54.0253906 C223.805805,54.7447953 223.742329,56.2682175 223.742329,58.5957031 C223.742329,59.4843794 223.752908,60.4788356 223.774067,61.5791016 C223.837544,65.6416219 223.922178,68.6567284 224.027973,70.6245117 C224.133768,72.592295 224.186665,74.0734 224.186665,75.0678711 L224.186665,75.7661133 C224.377095,75.4487289 224.578102,75.0996113 224.789692,74.71875 C225.424461,73.5338482 226.090958,72.1162192 226.789204,70.4658203 L226.820942,70.4658203 Z" id="Comeeting"></path>
        </g>
    </g>
</svg>